<?xml version="1.0" encoding="UTF-8" standalone="no"?>
<svg
   width="62mm"
   height="44mm"
   viewBox="0 0 62 44"
   version="1.1"
   id="svg8"
   inkscape:version="1.3 (0e150ed6c4, 2023-07-21)"
   sodipodi:docname="yoda-repositories.svg"
   inkscape:export-filename="C:\workspace\yoda-icons\presentation-icon.png"
   inkscape:export-xdpi="61.310001"
   inkscape:export-ydpi="61.310001"
   xmlns:inkscape="http://www.inkscape.org/namespaces/inkscape"
   xmlns:sodipodi="http://sodipodi.sourceforge.net/DTD/sodipodi-0.dtd"
   xmlns="http://www.w3.org/2000/svg"
   xmlns:svg="http://www.w3.org/2000/svg"
   xmlns:rdf="http://www.w3.org/1999/02/22-rdf-syntax-ns#"
   xmlns:cc="http://creativecommons.org/ns#"
   xmlns:dc="http://purl.org/dc/elements/1.1/">
  <defs
     id="defs2" />
  <sodipodi:namedview
     id="base"
     pagecolor="#ffffff"
     bordercolor="#666666"
     borderopacity="1.0"
     inkscape:pageopacity="0.0"
     inkscape:pageshadow="2"
     inkscape:zoom="1.979899"
     inkscape:cx="-13.131983"
     inkscape:cy="54.800775"
     inkscape:document-units="mm"
     inkscape:current-layer="layer1"
     showgrid="false"
     inkscape:window-width="1920"
     inkscape:window-height="1001"
     inkscape:window-x="-9"
     inkscape:window-y="-9"
     inkscape:window-maximized="1"
     inkscape:snap-others="false"
     inkscape:snap-grids="false"
     inkscape:snap-nodes="false"
     inkscape:snap-global="false"
     inkscape:document-rotation="0"
     inkscape:showpageshadow="2"
     inkscape:pagecheckerboard="0"
     inkscape:deskcolor="#d1d1d1" />
  <metadata
     id="metadata5">
    <rdf:RDF>
      <cc:Work
         rdf:about="">
        <dc:format>image/svg+xml</dc:format>
        <dc:type
           rdf:resource="http://purl.org/dc/dcmitype/StillImage" />
        <dc:title />
      </cc:Work>
    </rdf:RDF>
  </metadata>
  <g
     inkscape:groupmode="layer"
     id="layer2"
     inkscape:label="Baggrund">
    <rect
       style="fill:#ffffff;fill-opacity:1;stroke-width:0.26458332"
       id="rect905"
       width="62.140163"
       height="44.901276"
       x="-0.13363487"
       y="0.034164444"
       ry="6.0840784e-007" />
  </g>
  <g
     inkscape:label="Layer 1"
     inkscape:groupmode="layer"
     id="layer1"
     transform="translate(0,-253)">
    <rect
       style="fill:#008fb3;fill-opacity:1;stroke-width:0.26458332"
       id="rect815"
       width="62.140167"
       height="6.8153729"
       x="0"
       y="253.03416" />
    <rect
       style="fill:#ffffff;fill-opacity:1;stroke-width:0.26458332"
       id="rect907"
       width="9.2207985"
       height="8.2853556"
       x="1.3363476"
       y="270.27304"
       ry="6.0840671e-007" />
    <g
       transform="matrix(0.05458585,0,0,0.06761731,17.228828,261.59125)"
       id="g10458" />
    <g
       transform="matrix(0.05458585,0,0,0.06761731,17.228828,261.59125)"
       id="g10460" />
    <g
       transform="matrix(0.05458585,0,0,0.06761731,17.228828,261.59125)"
       id="g10462" />
    <g
       transform="matrix(0.05458585,0,0,0.06761731,17.228828,261.59125)"
       id="g10464" />
    <g
       transform="matrix(0.05458585,0,0,0.06761731,17.228828,261.59125)"
       id="g10466" />
    <g
       transform="matrix(0.05458585,0,0,0.06761731,17.228828,261.59125)"
       id="g10468" />
    <g
       transform="matrix(0.05458585,0,0,0.06761731,17.228828,261.59125)"
       id="g10470" />
    <g
       transform="matrix(0.05458585,0,0,0.06761731,17.228828,261.59125)"
       id="g10472" />
    <g
       transform="matrix(0.05458585,0,0,0.06761731,17.228828,261.59125)"
       id="g10474" />
    <g
       transform="matrix(0.05458585,0,0,0.06761731,17.228828,261.59125)"
       id="g10476" />
    <g
       transform="matrix(0.05458585,0,0,0.06761731,17.228828,261.59125)"
       id="g10478" />
    <g
       transform="matrix(0.05458585,0,0,0.06761731,17.228828,261.59125)"
       id="g10480" />
    <g
       transform="matrix(0.05458585,0,0,0.06761731,17.228828,261.59125)"
       id="g10482" />
    <g
       transform="matrix(0.05458585,0,0,0.06761731,17.228828,261.59125)"
       id="g10484" />
    <g
       transform="matrix(0.05458585,0,0,0.06761731,17.228828,261.59125)"
       id="g10486" />
    <g
       transform="matrix(0.12129176,0,0,0.10052362,12.597069,261.33317)"
       id="g4637" />
    <g
       transform="matrix(0.12129176,0,0,0.10052362,12.597069,261.33317)"
       id="g4639" />
    <g
       transform="matrix(0.12129176,0,0,0.10052362,12.597069,261.33317)"
       id="g4641" />
    <g
       transform="matrix(0.12129176,0,0,0.10052362,12.597069,261.33317)"
       id="g4643" />
    <g
       transform="matrix(0.12129176,0,0,0.10052362,12.597069,261.33317)"
       id="g4645" />
    <g
       transform="matrix(0.12129176,0,0,0.10052362,12.597069,261.33317)"
       id="g4647" />
    <g
       transform="matrix(0.12129176,0,0,0.10052362,12.597069,261.33317)"
       id="g4649" />
    <g
       transform="matrix(0.12129176,0,0,0.10052362,12.597069,261.33317)"
       id="g4651" />
    <g
       transform="matrix(0.12129176,0,0,0.10052362,12.597069,261.33317)"
       id="g4653" />
    <g
       transform="matrix(0.12129176,0,0,0.10052362,12.597069,261.33317)"
       id="g4655" />
    <g
       transform="matrix(0.12129176,0,0,0.10052362,12.597069,261.33317)"
       id="g4657" />
    <g
       transform="matrix(0.12129176,0,0,0.10052362,12.597069,261.33317)"
       id="g4659" />
    <g
       transform="matrix(0.12129176,0,0,0.10052362,12.597069,261.33317)"
       id="g4661" />
    <g
       transform="matrix(0.12129176,0,0,0.10052362,12.597069,261.33317)"
       id="g4663" />
    <g
       transform="matrix(0.12129176,0,0,0.10052362,12.597069,261.33317)"
       id="g4665" />
    <path
       d="m 51.851719,269.17532 v -3.31678 h -3.526124 v -3.31675 H 9.5382565 v 3.31675 H 6.0121323 v 3.31678 H 2.4860114 v 26.53407 H 55.37784 v -26.53407 z m -40.550404,-4.97514 h 35.261221 v 1.65836 H 11.301315 Z m 42.313463,29.85086 H 4.2490735 V 270.83368 H 53.614778 Z"
       id="path124"
       style="stroke-width:0.854959" />
    <path
       d="M 34.221108,282.44236 H 23.642743 v -1.65839 h -1.763062 v 3.31678 H 35.98417 v -3.31678 h -1.763062 z"
       id="path126"
       style="stroke-width:0.854959" />
  </g>
</svg>
