<?xml version="1.0" encoding="UTF-8" standalone="no"?>
<!-- Created with Inkscape (http://www.inkscape.org/) -->

<svg
   width="62mm"
   height="44mm"
   viewBox="0 0 62 44"
   version="1.1"
   id="svg8"
   inkscape:version="1.3 (0e150ed6c4, 2023-07-21)"
   sodipodi:docname="yoda-export-web.svg"
   inkscape:export-filename="C:\workspace\yoda\docs\export-web-icon-32.png"
   inkscape:export-xdpi="13.010766"
   inkscape:export-ydpi="13.010766"
   xmlns:inkscape="http://www.inkscape.org/namespaces/inkscape"
   xmlns:sodipodi="http://sodipodi.sourceforge.net/DTD/sodipodi-0.dtd"
   xmlns="http://www.w3.org/2000/svg"
   xmlns:svg="http://www.w3.org/2000/svg"
   xmlns:rdf="http://www.w3.org/1999/02/22-rdf-syntax-ns#"
   xmlns:cc="http://creativecommons.org/ns#"
   xmlns:dc="http://purl.org/dc/elements/1.1/">
  <defs
     id="defs2" />
  <sodipodi:namedview
     id="base"
     pagecolor="#ffffff"
     bordercolor="#666666"
     borderopacity="1.0"
     inkscape:pageopacity="0.0"
     inkscape:pageshadow="2"
     inkscape:zoom="0.70000001"
     inkscape:cx="21.428571"
     inkscape:cy="54.999999"
     inkscape:document-units="mm"
     inkscape:current-layer="layer1"
     showgrid="false"
     inkscape:window-width="1920"
     inkscape:window-height="1001"
     inkscape:window-x="-9"
     inkscape:window-y="-9"
     inkscape:window-maximized="1"
     inkscape:snap-others="false"
     inkscape:snap-grids="false"
     inkscape:snap-nodes="false"
     inkscape:snap-global="false"
     inkscape:showpageshadow="2"
     inkscape:pagecheckerboard="0"
     inkscape:deskcolor="#d1d1d1" />
  <metadata
     id="metadata5">
    <rdf:RDF>
      <cc:Work
         rdf:about="">
        <dc:format>image/svg+xml</dc:format>
        <dc:type
           rdf:resource="http://purl.org/dc/dcmitype/StillImage" />
        <dc:title />
      </cc:Work>
    </rdf:RDF>
  </metadata>
  <g
     inkscape:groupmode="layer"
     id="layer2"
     inkscape:label="Baggrund">
    <rect
       style="fill:#ffffff;fill-opacity:1;stroke-width:0.26458332"
       id="rect905"
       width="62.140163"
       height="44.901276"
       x="-0.13363487"
       y="0.034164444"
       ry="6.0840784e-007" />
  </g>
  <g
     inkscape:label="Layer 1"
     inkscape:groupmode="layer"
     id="layer1"
     transform="translate(0,-253)">
    <rect
       style="fill:#008fb3;fill-opacity:1;stroke-width:0.26458332"
       id="rect815"
       width="62.140167"
       height="6.8153729"
       x="0"
       y="253.03416" />
    <rect
       style="fill:#ffffff;fill-opacity:1;stroke-width:0.26458332"
       id="rect907"
       width="9.2207985"
       height="8.2853556"
       x="1.3363476"
       y="270.27304"
       ry="6.0840671e-007" />
    <g
       transform="matrix(0.05458585,0,0,0.06761731,17.228828,261.59125)"
       id="g10458" />
    <g
       transform="matrix(0.05458585,0,0,0.06761731,17.228828,261.59125)"
       id="g10460" />
    <g
       transform="matrix(0.05458585,0,0,0.06761731,17.228828,261.59125)"
       id="g10462" />
    <g
       transform="matrix(0.05458585,0,0,0.06761731,17.228828,261.59125)"
       id="g10464" />
    <g
       transform="matrix(0.05458585,0,0,0.06761731,17.228828,261.59125)"
       id="g10466" />
    <g
       transform="matrix(0.05458585,0,0,0.06761731,17.228828,261.59125)"
       id="g10468" />
    <g
       transform="matrix(0.05458585,0,0,0.06761731,17.228828,261.59125)"
       id="g10470" />
    <g
       transform="matrix(0.05458585,0,0,0.06761731,17.228828,261.59125)"
       id="g10472" />
    <g
       transform="matrix(0.05458585,0,0,0.06761731,17.228828,261.59125)"
       id="g10474" />
    <g
       transform="matrix(0.05458585,0,0,0.06761731,17.228828,261.59125)"
       id="g10476" />
    <g
       transform="matrix(0.05458585,0,0,0.06761731,17.228828,261.59125)"
       id="g10478" />
    <g
       transform="matrix(0.05458585,0,0,0.06761731,17.228828,261.59125)"
       id="g10480" />
    <g
       transform="matrix(0.05458585,0,0,0.06761731,17.228828,261.59125)"
       id="g10482" />
    <g
       transform="matrix(0.05458585,0,0,0.06761731,17.228828,261.59125)"
       id="g10484" />
    <g
       transform="matrix(0.05458585,0,0,0.06761731,17.228828,261.59125)"
       id="g10486" />
    <g
       transform="matrix(0.09876147,0,0,0.06145925,5.4552557,261.57158)"
       id="g817">
      <path
         inkscape:connector-curvature="0"
         d="M 488.426,197.019 H 475.2 v -63.816 c 0,-0.401 -0.063,-0.799 -0.116,-1.205 -0.021,-2.534 -0.827,-5.023 -2.562,-6.992 L 366.325,3.691 C 366.293,3.66 366.262,3.649 366.24,3.618 365.607,2.911 364.869,2.32 364.089,1.814 363.858,1.656 363.625,1.527 363.383,1.392 362.707,1.026 361.99,0.717 361.252,0.496 c -0.2,-0.053 -0.38,-0.135 -0.58,-0.19 C 359.87,0.119 359.037,0 358.193,0 H 97.2 C 85.282,0 75.6,9.693 75.6,21.601 V 197.014 H 62.377 c -17.049,0 -30.873,13.818 -30.873,30.87 v 160.542 c 0,17.044 13.824,30.876 30.873,30.876 H 75.601 V 529.2 c 0,11.907 9.682,21.601 21.6,21.601 h 356.4 c 11.907,0 21.6,-9.693 21.6,-21.601 V 419.302 h 13.226 c 17.044,0 30.871,-13.827 30.871,-30.87 V 227.89 C 519.297,210.838 505.47,197.019 488.426,197.019 Z M 97.2,21.605 h 250.193 v 110.51 c 0,5.967 4.841,10.8 10.8,10.8 H 453.6 v 54.108 H 97.2 Z m 309.267,342.378 h -26.104 l -1.751,-46.464 c -0.527,-14.598 -1.055,-32.236 -1.055,-49.895 h -0.517 c -3.691,15.485 -8.596,32.782 -13.163,47.015 l -14.354,47.366 h -20.851 l -12.625,-47.002 c -3.85,-14.228 -7.889,-31.524 -10.694,-47.374 h -0.348 c -0.707,16.397 -1.234,35.129 -2.1,50.253 l -2.114,46.111 H 276.08 l 7.535,-121.395 h 35.575 l 11.569,40.521 c 3.691,14.048 7.362,29.183 9.999,43.416 h 0.521 c 3.344,-14.054 7.356,-30.074 11.222,-43.585 l 12.614,-40.353 h 34.879 z M 174.438,265.642 v -23.058 h 90.77 v 23.058 h -32.239 v 98.342 h -26.821 v -98.342 z m -85.035,47.553 v 50.788 H 62.604 V 242.584 h 26.799 v 46.654 h 43.999 v -46.654 h 26.645 V 363.983 H 133.402 V 313.189 H 89.403 Z M 453.601,523.353 H 97.2 V 419.302 h 356.4 v 104.051 z m 47.186,-159.37 H 427.001 V 242.584 h 26.811 v 98.339 h 46.976 v 23.06 z"
         id="path815" />
    </g>
  </g>
</svg>
