<?xml version="1.0" encoding="UTF-8" standalone="no"?>
<!-- Created with Inkscape (http://www.inkscape.org/) -->

<svg
   xmlns:dc="http://purl.org/dc/elements/1.1/"
   xmlns:cc="http://creativecommons.org/ns#"
   xmlns:rdf="http://www.w3.org/1999/02/22-rdf-syntax-ns#"
   xmlns:svg="http://www.w3.org/2000/svg"
   xmlns="http://www.w3.org/2000/svg"
   xmlns:sodipodi="http://sodipodi.sourceforge.net/DTD/sodipodi-0.dtd"
   xmlns:inkscape="http://www.inkscape.org/namespaces/inkscape"
   width="62mm"
   height="44mm"
   viewBox="0 0 62 44"
   version="1.1"
   id="svg8"
   inkscape:version="0.92.2 (5c3e80d, 2017-08-06)"
   sodipodi:docname="yoda-admin.svg"
   inkscape:export-filename="C:\workspace\yoda-icons\presentation-icon.png"
   inkscape:export-xdpi="61.310001"
   inkscape:export-ydpi="61.310001">
  <defs
     id="defs2" />
  <sodipodi:namedview
     id="base"
     pagecolor="#ffffff"
     bordercolor="#666666"
     borderopacity="1.0"
     inkscape:pageopacity="0.0"
     inkscape:pageshadow="2"
     inkscape:zoom="0.9899495"
     inkscape:cx="10.386224"
     inkscape:cy="111.42795"
     inkscape:document-units="mm"
     inkscape:current-layer="layer1"
     showgrid="false"
     inkscape:window-width="1920"
     inkscape:window-height="1137"
     inkscape:window-x="-8"
     inkscape:window-y="-8"
     inkscape:window-maximized="1"
     inkscape:snap-others="false"
     inkscape:snap-grids="false"
     inkscape:snap-nodes="false"
     inkscape:snap-global="false" />
  <metadata
     id="metadata5">
    <rdf:RDF>
      <cc:Work
         rdf:about="">
        <dc:format>image/svg+xml</dc:format>
        <dc:type
           rdf:resource="http://purl.org/dc/dcmitype/StillImage" />
        <dc:title></dc:title>
      </cc:Work>
    </rdf:RDF>
  </metadata>
  <g
     inkscape:groupmode="layer"
     id="layer2"
     inkscape:label="Baggrund">
    <rect
       style="fill:#ffffff;fill-opacity:1;stroke-width:0.26458332"
       id="rect905"
       width="62.140163"
       height="44.901276"
       x="-0.13363487"
       y="0.034164444"
       ry="6.0840784e-007" />
  </g>
  <g
     inkscape:label="Layer 1"
     inkscape:groupmode="layer"
     id="layer1"
     transform="translate(0,-253)">
    <rect
       style="fill:#01a982;fill-opacity:1;stroke-width:0.26458332"
       id="rect815"
       width="62.140167"
       height="6.8153729"
       x="0"
       y="253.03416" />
    <rect
       style="fill:#ffffff;fill-opacity:1;stroke-width:0.26458332"
       id="rect907"
       width="9.2207985"
       height="8.2853556"
       x="1.3363476"
       y="270.27304"
       ry="6.0840671e-007" />
    <g
       transform="matrix(0.05458585,0,0,0.06761731,17.228828,261.59125)"
       id="g10458" />
    <g
       transform="matrix(0.05458585,0,0,0.06761731,17.228828,261.59125)"
       id="g10460" />
    <g
       transform="matrix(0.05458585,0,0,0.06761731,17.228828,261.59125)"
       id="g10462" />
    <g
       transform="matrix(0.05458585,0,0,0.06761731,17.228828,261.59125)"
       id="g10464" />
    <g
       transform="matrix(0.05458585,0,0,0.06761731,17.228828,261.59125)"
       id="g10466" />
    <g
       transform="matrix(0.05458585,0,0,0.06761731,17.228828,261.59125)"
       id="g10468" />
    <g
       transform="matrix(0.05458585,0,0,0.06761731,17.228828,261.59125)"
       id="g10470" />
    <g
       transform="matrix(0.05458585,0,0,0.06761731,17.228828,261.59125)"
       id="g10472" />
    <g
       transform="matrix(0.05458585,0,0,0.06761731,17.228828,261.59125)"
       id="g10474" />
    <g
       transform="matrix(0.05458585,0,0,0.06761731,17.228828,261.59125)"
       id="g10476" />
    <g
       transform="matrix(0.05458585,0,0,0.06761731,17.228828,261.59125)"
       id="g10478" />
    <g
       transform="matrix(0.05458585,0,0,0.06761731,17.228828,261.59125)"
       id="g10480" />
    <g
       transform="matrix(0.05458585,0,0,0.06761731,17.228828,261.59125)"
       id="g10482" />
    <g
       transform="matrix(0.05458585,0,0,0.06761731,17.228828,261.59125)"
       id="g10484" />
    <g
       transform="matrix(0.05458585,0,0,0.06761731,17.228828,261.59125)"
       id="g10486" />
    <g
       style="stroke:#000000;stroke-width:20"
       transform="matrix(0.03965423,0,0,0.04047061,60.564619,248.91958)"
       id="g11726">
      <g
         transform="matrix(-0.60221,0.79834,-0.79834,-0.60221,-568.92,1748.2)"
         id="g11718">
        <path
           style="fill:#c5c5c5"
           inkscape:connector-curvature="0"
           d="m -720,340.94 c -14.92,0 -29.639,0.84333 -44.125,2.4688 l 1.375,12.625 3.7812,31.375 -0.375,0.0312 v 0.0312 h -0.15625 -0.0937 l -4.2812,0.53125 -3.625,0.46875 v 0.0312 l -4.25,0.59375 -0.28125,0.0312 -0.34375,0.0625 -3.5938,0.59375 -0.625,0.0937 -3.5938,0.625 -4.1875,0.75 -0.53125,0.125 H -785 l -3.5625,0.71875 -0.59375,0.125 -3.5625,0.75 -0.59375,0.125 -3.5312,0.78125 -0.625,0.15625 -3.5,0.84375 -4.0938,1 -0.5,0.125 -0.0937,0.0312 -3.5,0.9375 -0.59375,0.15625 -3.4375,0.9375 -0.625,0.1875 -3.4375,1 -0.59375,0.1875 -3.4062,1.0312 -0.59375,0.1875 -3.4062,1.0625 -0.0625,0.0312 -0.53125,0.15625 -3.375,1.125 -0.59375,0.21875 -3.375,1.1562 -0.5625,0.1875 -3.3438,1.2188 -0.3125,0.125 -0.28125,0.0937 -3.3125,1.25 -0.59375,0.21875 -1.9062,0.71875 -16.125,-41.656 c -31.02,11.848 -60.159,27.535 -86.812,46.469 l 26.531,36.812 -0.8125,0.5625 -0.4375,0.3125 -0.0312,0.0312 -2.8125,2.0938 -3.2812,2.4688 -0.46875,0.375 -2.7812,2.1562 -0.46875,0.34375 -2.75,2.1875 -0.1875,0.15625 -0.28125,0.21875 -2.7188,2.2188 -0.4375,0.375 -2.7188,2.25 -0.40625,0.34375 -0.0312,0.0312 -2.6562,2.2812 -0.1875,0.1875 -0.28125,0.21875 -2.625,2.3125 -0.4375,0.375 -2.625,2.3438 -0.4375,0.40625 -2.5625,2.375 -0.0625,0.0625 -0.375,0.34375 -2.5625,2.4062 -0.4375,0.40625 -2.5312,2.4375 -0.40625,0.40625 -2.5,2.4688 -0.40625,0.4375 -2.4688,2.4688 -0.4375,0.4375 -2.4062,2.5312 -0.4375,0.4375 -2.375,2.5312 -0.25,0.28125 -0.15625,0.15625 -2.375,2.5938 -0.40625,0.4375 -2.3438,2.5938 -0.40625,0.4375 -2.3128,2.6568 -0.28125,0.34375 -0.0937,0.0937 -2.2812,2.6562 -0.375,0.46875 -2.5,2.9688 -35.562,-29.688 c -21.251,25.144 -39.414,52.987 -53.844,82.969 l 43.25,19.875 -1.4686,3.1875 -0.25,0.5625 -1.4376,3.2188 -0.031,0.0937 -0.2188,0.46875 -1.4062,3.25 -0.25,0.5625 -1.3438,3.2812 -1.5624,3.8438 -0.2189,0.59375 -1.2811,3.3125 -0.2189,0.5625 -1.25,3.3438 -0.2188,0.5625 -1.1874,3.3438 -0.2188,0.59375 -1.1562,3.375 -0.125,0.40625 -0.063,0.15625 -1.125,3.4062 -0.1874,0.59375 -1.0938,3.4062 -0.1875,0.5625 -1.0313,3.4375 -0.1874,0.59375 -1,3.4375 -0.1563,0.59375 -0.9687,3.4688 -0.125,0.46875 -0.031,0.125 -0.9063,3.4688 -0.1562,0.625 -0.875,3.4688 -0.031,0.0937 -0.125,0.53125 -0.8438,3.5 -0.125,0.59375 -0.8125,3.5312 -0.125,0.625 -0.75,3.5312 -0.094,0.4375 -0.031,0.1875 -0.6875,3.5625 -0.125,0.59375 -0.6875,3.75 -48.125,-8.9062 c -4.7434,24.355 -7.25,49.538 -7.25,75.281 0,8.1066 0.2642,16.141 0.75,24.125 l 22.156,-1.5312 28.062,-2.3125 0.031,0.34375 0.031,0.28125 0.2812,3.6875 h 0.031 l 0.4063,4.3438 0.031,0.25 0.031,0.375 0.4688,4.2812 h -0.031 l 0.4687,3.6562 0.5626,4.2812 0.094,0.625 0.5313,3.625 0.094,0.59375 0.5625,3.625 0.094,0.625 0.75,4.1875 0.6562,3.5938 0.125,0.625 0.6875,3.5312 0.031,0.1875 0.094,0.4375 0.75,3.5312 0.125,0.625 0.8125,3.5312 0.125,0.59375 0.8438,3.5312 0.1562,0.59375 0.875,3.5 0.1562,0.59375 0.9063,3.4688 0.031,0.0625 0.125,0.53125 0.9687,3.4688 0.1563,0.59375 1,3.4375 0.1874,0.59375 1.0313,3.4375 0.125,0.375 0.062,0.21875 1.0938,3.4062 0.1874,0.5625 1.125,3.4062 0.031,0.0625 0.1563,0.5 0.5,1.4062 -49,16.906 c 10.596,32.219 25.278,62.584 43.406,90.5 l 44.188,-29.469 1,1.4688 0.3437,0.5 1.9688,2.9062 0.094,0.125 0.25,0.375 2.0312,2.875 0.34375,0.46875 2.0312,2.8438 0.375,0.5 2.0625,2.8125 0.375,0.46875 2.0938,2.8125 0.375,0.46875 2.1562,2.7812 0.3125,0.40625 0.0625,0.0625 2.1875,2.75 0.375,0.4375 2.1875,2.7188 0.40625,0.46875 2.25,2.6875 0.375,0.46875 2.2812,2.6562 0.0937,0.0937 0.28125,0.34375 2.3125,2.6562 0.40625,0.4375 2.3438,2.5938 0.40625,0.46875 2.375,2.5625 0.15625,0.15625 0.25,0.28125 2.8125,2.9688 -0.0312,0.0312 2.4375,2.5 0.4375,0.4375 2.4688,2.5 0.1875,0.1875 0.21875,0.21875 2.5,2.4688 0.40625,0.40625 2.5312,2.4375 0.4375,0.40625 2.5625,2.4062 0.375,0.34375 0.0625,0.0625 2.5625,2.375 0.4375,0.40625 2.25,2 -36.25,40.37505 c 24.865,22.622 52.67,42.079 82.75,57.75 l 4.9688,-9.5313 19.938,-39.562 0.5,0.25 v -0.031 l 0.0625,0.031 v 0.031 l 3.125,1.5626 0.5625,0.2812 3.7188,1.8125 3.1875,1.5 0.5625,0.2813 3.1875,1.4687 0.53125,0.2186 0.0312,0.031 3.25,1.4375 0.5625,0.25 3.25,1.4062 0.5625,0.2188 3.8438,1.5938 v 0.031 l 3.2812,1.3125 v -0.031 l 3.875,1.5314 0.59375,0.2186 3.3125,1.2189 0.59375,0.2189 3.3438,1.2186 0.5625,0.1875 3.375,1.1561 0.59375,0.2189 3.375,1.125 0.53125,0.1561 0.0625,0.031 3.4062,1.0625 0.59375,0.1875 4,1.2187 3.4375,1 0.625,0.1876 3.4375,0.9687 v -0.031 l 4.0938,1.0938 0.15625,0.031 0.4375,0.125 3.5,0.875 0.59375,0.1563 3.5,0.8125 0.625,0.1562 3.375,0.75 -12.156,54.25 c 27.558,6.1494 56.214,9.375 85.625,9.375 5.0667,0 10.105,-0.09 15.125,-0.2812 l -0.65625,-20.719 -1.5625,-34.937 0.4375,-0.031 h 0.21875 l 3.7188,-0.1564 h 0.15625 l 0.5,-0.031 4.3438,-0.2811 v 0.031 l 3.7188,-0.2812 4.3438,-0.3438 0.625,-0.062 3.6875,-0.3437 0.25,-0.031 0.375,-0.031 3.6875,-0.4061 0.625,-0.062 4.2812,-0.5313 3.625,-0.4687 0.625,-0.094 3.625,-0.5313 0.125,-0.031 0.5,-0.062 3.5938,-0.5938 0.625,-0.094 3.5938,-0.625 4.1875,-0.75 0.53125,-0.125 h 0.0937 l 3.5625,-0.7187 0.59375,-0.125 3.5625,-0.75 0.59375,-0.125 3.5312,-0.7813 0.625,-0.1562 3.5,-0.8125 0.59375,-0.1563 3.5,-0.875 0.4375,-0.125 0.15625,-0.031 4.0938,-1.0939 v 0.031 l 3.4375,-0.9686 0.625,-0.1876 3.4375,-1 0.59375,-0.1562 0.90625,-0.2812 16.156,53.062 c 32.669,-10.017 63.525,-24.188 91.938,-41.906 l -28.781,-46.719 2.1875,-1.3437 0.53125,-0.3437 2.9688,-1.875 0.5,-0.3126 2.9375,-1.9062 0.5,-0.3438 2.9375,-1.9374 0.5,-0.3438 2.875,-1.9688 0.0625,-0.031 0.4375,-0.3125 2.875,-2.0313 0.5,-0.3437 2.8438,-2.0625 0.40625,-0.2812 0.0625,-0.063 2.8125,-2.0937 3.2812,-2.46885 0.46875,-0.375 2.7812,-2.125 0.46875,-0.375 2.75,-2.1875 0.0625,-0.0625 0.40625,-0.3125 2.7188,-2.2188 0.4375,-0.375 2.7188,-2.25 0.40625,-0.34375 0.0312,-0.0312 2.6562,-2.2812 0.1875,-0.1875 0.28125,-0.21875 2.625,-2.3125 0.4375,-0.375 2.625,-2.3438 0.4375,-0.40625 2.5625,-2.375 0.0625,-0.0625 0.375,-0.34375 2.5625,-2.4062 0.4375,-0.40625 2.5312,-2.4375 0.40625,-0.40625 2.5,-2.4688 0.21875,-0.21875 0.1875,-0.1875 2.4688,-2.5 0.4375,-0.4375 1.5,-1.5625 38.812,37.469 c 22.996,-24.389 42.891,-51.74 59.062,-81.406 l -45.905,-26.032 0.125,-0.1875 0.21875,-0.375 0.0625,-0.125 1.6875,-3.0938 1.9688,-3.6562 0.15625,-0.28125 0.125,-0.25 1.625,-3.125 0.28125,-0.53125 1.5938,-3.1562 0.25,-0.53125 1.5625,-3.1875 0.25,-0.53125 1.5312,-3.1875 0.25,-0.5625 1.4688,-3.2188 0.25,-0.5625 1.4375,-3.2188 0.0312,-0.0937 0.21875,-0.46875 1.4062,-3.25 0.25,-0.5625 1.3438,-3.2812 1.5625,-3.8438 0.21875,-0.59375 1.2812,-3.3125 0.21875,-0.5625 1.25,-3.3125 0.0937,-0.28125 0.125,-0.3125 1.1875,-3.3438 0.21875,-0.59375 1.1562,-3.375 0.15625,-0.46875 0.0312,-0.0937 1.125,-3.4062 0.1875,-0.5625 1.0939,-3.4064 0.0625,-0.21875 0.125,-0.375 1.0312,-3.4375 0.1875,-0.59375 1,-3.4375 0.15625,-0.59375 0.96875,-3.4688 0.15625,-0.59375 0.78125,-2.9688 49.688,13.125 c 7.3535,-29.981 11.281,-61.314 11.281,-93.562 0,-22.185 -1.8601,-43.947 -5.4062,-65.125 l -6.7188,1 -41.781,6.6562 -0.0937,-0.625 -0.5625,-3.625 -0.0937,-0.625 -0.625,-3.5625 -0.125,-0.625 -0.65625,-3.5938 -0.125,-0.59375 -0.6875,-3.5625 -0.0312,-0.1875 -0.0937,-0.4375 -0.75,-3.5312 -0.125,-0.625 -0.8125,-3.5312 -0.125,-0.59375 -0.84375,-3.5 -0.125,-0.53125 -0.0312,-0.0937 -0.875,-3.4688 -0.15625,-0.625 -0.90625,-3.4688 -0.0312,-0.125 -0.125,-0.46875 -0.96875,-3.4688 -0.15625,-0.59375 -1,-3.4375 -0.1875,-0.59375 -1.0312,-3.4375 -0.1875,-0.5625 -1.0938,-3.4062 -0.1875,-0.59375 -1.125,-3.4062 -0.0625,-0.15625 -0.125,-0.40625 -1.1562,-3.375 -0.21875,-0.59375 -1.1875,-3.3438 -0.21875,-0.5625 -1.25,-3.3438 -0.21875,-0.5625 -1.2812,-3.3125 -0.21875,-0.59375 -1.5625,-3.8438 -1.3438,-3.2812 -0.25,-0.5625 -1.0625,-2.4375 43.812,-18.844 c -13.651,-30.4 -31.066,-58.748 -51.656,-84.438 l -36.688,28.469 -0.0937,-0.0937 -0.375,-0.5 -2.1875,-2.7188 -0.0937,-0.0937 -0.28125,-0.375 -2.1875,-2.7188 -0.40625,-0.46875 -2.25,-2.6875 -0.375,-0.46875 -2.2812,-2.6562 -0.0937,-0.0937 -0.2817,-0.34395 -2.3125,-2.6562 -0.40625,-0.4375 -2.3438,-2.5938 -0.40625,-0.4375 -2.375,-2.5938 -0.15625,-0.15625 -0.25,-0.28125 -2.375,-2.5312 -0.4375,-0.4375 -2.4062,-2.5312 -0.4375,-0.4375 -2.4688,-2.4688 -0.40625,-0.4375 -2.5,-2.4688 -0.40625,-0.40625 -2.5312,-2.4375 -0.4375,-0.40625 -2.5625,-2.4062 -0.375,-0.34375 -0.0625,-0.0625 -2.5625,-2.375 -0.4375,-0.40625 -2.625,-2.3438 -0.4375,-0.375 -2.625,-2.3125 -0.28125,-0.21875 -0.1875,-0.1875 -2.6562,-2.2812 -0.0312,-0.0312 -0.40625,-0.34375 -2.7188,-2.25 -0.4375,-0.375 -2.7188,-2.2188 -0.28125,-0.21875 -0.1875,-0.15625 -2.75,-2.1875 -0.46875,-0.34375 -2.7812,-2.1562 -0.46875,-0.375 27.438,-36.219 c -26.181,-19.649 -54.876,-36.094 -85.562,-48.75 l -17.188,41.312 -3.2188,-1.3438 -3.2812,-1.3125 -0.3125,-0.125 -0.25,-0.0937 -3.3125,-1.2812 -0.59375,-0.21875 -3.3125,-1.25 -0.28125,-0.0937 -0.3125,-0.125 -3.3438,-1.2188 -0.5625,-0.1875 -3.375,-1.1562 -0.59375,-0.21875 -3.375,-1.125 -0.53125,-0.15625 -0.0625,-0.0312 -3.4062,-1.0625 -0.59375,-0.1875 -3.4062,-1.0312 -0.59375,-0.1875 -3.4375,-1 -0.625,-0.1875 -3.4375,-0.9375 -0.59375,-0.15625 -3.5,-0.9375 -0.0937,-0.0312 -0.5,-0.125 -4.0938,-1 -3.5,-0.84375 -0.625,-0.15625 -3.5312,-0.78125 -0.59375,-0.125 -3.5625,-0.75 -0.59375,-0.125 -3.5625,-0.71875 h -0.0937 l -0.53125,-0.125 -4.1875,-0.75 -3.5938,-0.625 -0.625,-0.0937 -3.5938,-0.59375 -0.375,-0.0625 -0.25,-0.0312 -3.9688,-0.5625 6.4062,-43.875 c -17.71,-2.4527 -35.803,-3.7191 -54.188,-3.7191 z m -2.7188,282.72 c 18.244,-0.41115 36.525,4.7785 52.188,13.875 35.612,20.164 56.44,61.99 53.281,102.44 -2.1117,38.431 -25.853,75.051 -60.969,91.344 -31.64,15.689 -70.836,12.159 -99.906,-7.6875 -37.088,-24.053 -54.52,-72.107 -45.25,-114.81 8.537,-46.953 52.716,-84.978 100.66,-85.156 z"
           id="path11714" />
        <path
           style="fill:#b4b4b4"
           inkscape:connector-curvature="0"
           d="m -720.31,423.72 c -2.1411,0.003 -4.2949,0.0416 -6.4375,0.0937 -92.775,0.9057 -183.54,48.468 -238.19,123.38 -51.433,69.098 -72.089,160.54 -55.094,244.97 15.578,80.989 64.557,154.96 133.81,199.69 58.291,38.216 130.19,55.56 199.5,47.188 77.645,-8.9068 151.44,-49.428 200.38,-110.69 51.484,-63.213 76.414,-146.95 67.656,-227.81 -8.2341,-83.014 -51.167,-162.02 -117.47,-213 -52.288,-40.719 -117.78,-63.918 -184.16,-63.812 z m -2.4062,199.94 c 18.244,-0.41115 36.525,4.7785 52.188,13.875 35.612,20.164 56.44,61.99 53.281,102.44 -2.1117,38.431 -25.853,75.051 -60.969,91.344 -31.64,15.689 -70.836,12.159 -99.906,-7.6875 -37.088,-24.053 -54.52,-72.107 -45.25,-114.81 8.537,-46.953 52.716,-84.978 100.66,-85.156 z"
           id="path11716" />
      </g>
      <path
         style="fill:#828a95"
         inkscape:connector-curvature="0"
         d="m -542.86,469.51 -348.57,448.57 25.714,20 348.57,-448.57 48.571,-8.5714 62.857,-94.286 -60,-42.857 -85.714,80 8.5714,45.714 z"
         id="path11720" />
      <path
         style="fill:#828a95"
         inkscape:connector-curvature="0"
         d="m -998.22,407.26 57.352,67.79 -18.252,88.662 -91.261,20.852 -70.406,-86.026 c 0,0 -28.322,88.266 23.463,138.19 55.835,53.826 156.45,20.856 164.27,20.856 l 388.51,380.69 c 0,0 62.595,65.178 112.14,7.8142 49.542,-57.364 -13.062,-101.67 -13.062,-101.67 l -425,-349.42 c 0,0 49.546,-86.042 -10.426,-151.23 -29.375,-30.595 -74.811,-55.466 -117.33,-36.504 z m 513.66,542.35 c 27.361,0 49.538,22.205 49.538,49.566 0,27.361 -22.177,49.538 -49.538,49.538 -27.361,0 -49.538,-22.176 -49.538,-49.538 0,-27.361 22.177,-49.566 49.538,-49.566 z"
         id="path11722" />
      <path
         style="fill:#780c00"
         inkscape:connector-curvature="0"
         d="m -708.13,619.68 89.019,89.691 -19.958,49.504 c 0,0 -20.793,-19.596 -46.067,0.55668 -25.274,20.152 -5.4417,48.266 -5.4417,48.266 l -218.48,280.14002 c 0,0 -50.548,40.305 -98.452,6.1515 -47.904,-34.153 -32.984,-89.976 -32.984,-89.976 l 227.31,-282.02002 c 0,0 29.95,14.878 46.707,-6.235 16.757,-21.113 6.1899,-61.579 6.1899,-61.579 l 52.149,-34.501 z"
         id="path11724" />
    </g>
  </g>
</svg>
