<?xml version="1.0" encoding="UTF-8" standalone="no"?>
<!-- Created with Inkscape (http://www.inkscape.org/) -->

<svg
   width="62mm"
   height="44mm"
   viewBox="0 0 62 44"
   version="1.1"
   id="svg8"
   inkscape:version="1.3 (0e150ed6c4, 2023-07-21)"
   sodipodi:docname="yoda-export.svg"
   inkscape:export-filename="C:\workspace\yoda\docs\export-icon-32.png"
   inkscape:export-xdpi="13.08"
   inkscape:export-ydpi="13.08"
   xmlns:inkscape="http://www.inkscape.org/namespaces/inkscape"
   xmlns:sodipodi="http://sodipodi.sourceforge.net/DTD/sodipodi-0.dtd"
   xmlns="http://www.w3.org/2000/svg"
   xmlns:svg="http://www.w3.org/2000/svg"
   xmlns:rdf="http://www.w3.org/1999/02/22-rdf-syntax-ns#"
   xmlns:cc="http://creativecommons.org/ns#"
   xmlns:dc="http://purl.org/dc/elements/1.1/">
  <defs
     id="defs2" />
  <sodipodi:namedview
     id="base"
     pagecolor="#ffffff"
     bordercolor="#666666"
     borderopacity="1.0"
     inkscape:pageopacity="0.0"
     inkscape:pageshadow="2"
     inkscape:zoom="1.979899"
     inkscape:cx="221.72848"
     inkscape:cy="54.800775"
     inkscape:document-units="mm"
     inkscape:current-layer="layer1"
     showgrid="false"
     inkscape:window-width="1920"
     inkscape:window-height="1001"
     inkscape:window-x="-9"
     inkscape:window-y="-9"
     inkscape:window-maximized="1"
     inkscape:snap-others="false"
     inkscape:snap-grids="false"
     inkscape:snap-nodes="false"
     inkscape:snap-global="true"
     inkscape:showpageshadow="2"
     inkscape:pagecheckerboard="0"
     inkscape:deskcolor="#d1d1d1" />
  <metadata
     id="metadata5">
    <rdf:RDF>
      <cc:Work
         rdf:about="">
        <dc:format>image/svg+xml</dc:format>
        <dc:type
           rdf:resource="http://purl.org/dc/dcmitype/StillImage" />
        <dc:title />
      </cc:Work>
    </rdf:RDF>
  </metadata>
  <g
     inkscape:groupmode="layer"
     id="layer2"
     inkscape:label="Baggrund">
    <rect
       style="fill:#ffffff;fill-opacity:1;stroke-width:0.26458332"
       id="rect905"
       width="62.140163"
       height="44.901276"
       x="-9.8488108e-008"
       y="0.1677992"
       ry="6.0840784e-007" />
  </g>
  <g
     inkscape:label="Layer 1"
     inkscape:groupmode="layer"
     id="layer1"
     transform="translate(0,-253)">
    <rect
       style="fill:#008fb3;fill-opacity:1;stroke-width:0.26458332"
       id="rect815"
       width="62.140167"
       height="6.8153729"
       x="0"
       y="253.03416" />
    <rect
       style="fill:#ffffff;fill-opacity:1;stroke-width:0.26458332"
       id="rect907"
       width="9.2207985"
       height="8.2853556"
       x="1.3363476"
       y="270.27304"
       ry="6.0840671e-007" />
    <path
       inkscape:connector-curvature="0"
       style="fill-rule:evenodd;stroke-width:2.44580293"
       d="m 32.795669,288.65618 h 5.03934 l -7.55901,7.1223 -7.55901,-7.1223 h 5.03934 v -11.87054 h 5.03934 z m 7.55901,-18.99285 c 0,-1.04463 -2.2929,-7.1223 -11.338515,-7.1223 -6.097602,0 -11.338515,4.55828 -11.338515,9.49638 -4.988948,0 -7.559013,3.60866 -7.559013,7.1223 0,3.63244 2.519671,7.12231 7.559013,7.12231 h 7.55901 v -3.08626 h -7.55901 c -4.081867,0 -4.283441,-3.37124 -4.283441,-4.03605 0,-0.40378 0.125982,-4.03596 4.283441,-4.03596 h 3.275571 v -3.08634 c 0,-3.3 3.930685,-6.41003 8.062944,-6.41003 6.425158,0 7.886567,3.67982 8.062944,4.27338 v 2.84892 h 3.275571 c 2.040932,0 6.803109,0.52223 6.803109,5.223 0,4.96188 -5.669258,5.22308 -6.803109,5.22308 h -5.039341 v 3.08626 h 5.039341 c 5.240913,0 10.078679,-2.7539 10.078679,-8.30934 0,-5.79278 -4.837766,-8.30935 -10.078679,-8.30935 z"
       id="path1967" />
  </g>
</svg>
