<?xml version="1.0" encoding="UTF-8" standalone="no"?>
<!-- Created with Inkscape (http://www.inkscape.org/) -->

<svg
   width="62mm"
   height="44mm"
   viewBox="0 0 62 44"
   version="1.1"
   id="svg8"
   inkscape:version="1.3 (0e150ed6c4, 2023-07-21)"
   sodipodi:docname="yoda-release.svg"
   inkscape:export-filename="C:\workspace\yoda-icons\presentation-icon.png"
   inkscape:export-xdpi="61.310001"
   inkscape:export-ydpi="61.310001"
   xmlns:inkscape="http://www.inkscape.org/namespaces/inkscape"
   xmlns:sodipodi="http://sodipodi.sourceforge.net/DTD/sodipodi-0.dtd"
   xmlns="http://www.w3.org/2000/svg"
   xmlns:svg="http://www.w3.org/2000/svg"
   xmlns:rdf="http://www.w3.org/1999/02/22-rdf-syntax-ns#"
   xmlns:cc="http://creativecommons.org/ns#"
   xmlns:dc="http://purl.org/dc/elements/1.1/">
  <defs
     id="defs2" />
  <sodipodi:namedview
     id="base"
     pagecolor="#ffffff"
     bordercolor="#666666"
     borderopacity="1.0"
     inkscape:pageopacity="0.0"
     inkscape:pageshadow="2"
     inkscape:zoom="1.979899"
     inkscape:cx="-13.131983"
     inkscape:cy="54.800775"
     inkscape:document-units="mm"
     inkscape:current-layer="layer1"
     showgrid="false"
     inkscape:window-width="1920"
     inkscape:window-height="1001"
     inkscape:window-x="-9"
     inkscape:window-y="-9"
     inkscape:window-maximized="1"
     inkscape:snap-others="false"
     inkscape:snap-grids="false"
     inkscape:snap-nodes="false"
     inkscape:snap-global="false"
     inkscape:showpageshadow="2"
     inkscape:pagecheckerboard="0"
     inkscape:deskcolor="#d1d1d1" />
  <metadata
     id="metadata5">
    <rdf:RDF>
      <cc:Work
         rdf:about="">
        <dc:format>image/svg+xml</dc:format>
        <dc:type
           rdf:resource="http://purl.org/dc/dcmitype/StillImage" />
        <dc:title />
      </cc:Work>
    </rdf:RDF>
  </metadata>
  <g
     inkscape:groupmode="layer"
     id="layer2"
     inkscape:label="Baggrund">
    <rect
       style="fill:#ffffff;fill-opacity:1;stroke-width:0.26458332"
       id="rect905"
       width="62.140163"
       height="44.901276"
       x="-0.13363487"
       y="0.034164444"
       ry="6.0840784e-007" />
  </g>
  <g
     inkscape:label="Layer 1"
     inkscape:groupmode="layer"
     id="layer1"
     transform="translate(0,-253)">
    <rect
       style="fill:#008fb3;fill-opacity:1;stroke-width:0.26458332"
       id="rect815"
       width="62.140167"
       height="6.8153729"
       x="0"
       y="253.03416" />
    <rect
       style="fill:#ffffff;fill-opacity:1;stroke-width:0.26458332"
       id="rect907"
       width="9.2207985"
       height="8.2853556"
       x="1.3363476"
       y="270.27304"
       ry="6.0840671e-007" />
    <g
       transform="matrix(0.05458585,0,0,0.06761731,17.228828,261.59125)"
       id="g10458" />
    <g
       transform="matrix(0.05458585,0,0,0.06761731,17.228828,261.59125)"
       id="g10460" />
    <g
       transform="matrix(0.05458585,0,0,0.06761731,17.228828,261.59125)"
       id="g10462" />
    <g
       transform="matrix(0.05458585,0,0,0.06761731,17.228828,261.59125)"
       id="g10464" />
    <g
       transform="matrix(0.05458585,0,0,0.06761731,17.228828,261.59125)"
       id="g10466" />
    <g
       transform="matrix(0.05458585,0,0,0.06761731,17.228828,261.59125)"
       id="g10468" />
    <g
       transform="matrix(0.05458585,0,0,0.06761731,17.228828,261.59125)"
       id="g10470" />
    <g
       transform="matrix(0.05458585,0,0,0.06761731,17.228828,261.59125)"
       id="g10472" />
    <g
       transform="matrix(0.05458585,0,0,0.06761731,17.228828,261.59125)"
       id="g10474" />
    <g
       transform="matrix(0.05458585,0,0,0.06761731,17.228828,261.59125)"
       id="g10476" />
    <g
       transform="matrix(0.05458585,0,0,0.06761731,17.228828,261.59125)"
       id="g10478" />
    <g
       transform="matrix(0.05458585,0,0,0.06761731,17.228828,261.59125)"
       id="g10480" />
    <g
       transform="matrix(0.05458585,0,0,0.06761731,17.228828,261.59125)"
       id="g10482" />
    <g
       transform="matrix(0.05458585,0,0,0.06761731,17.228828,261.59125)"
       id="g10484" />
    <g
       transform="matrix(0.05458585,0,0,0.06761731,17.228828,261.59125)"
       id="g10486" />
    <g
       transform="matrix(0.12129176,0,0,0.10052362,12.597069,261.33317)"
       id="g4635">
      <g
         id="g4633">
        <g
           id="g4631">
          <g
             id="g4615">
            <path
               inkscape:connector-curvature="0"
               d="M 199.654,105.629 H 49.965 c -4.143,0 -7.5,-3.357 -7.5,-7.5 0,-4.143 3.357,-7.5 7.5,-7.5 h 149.689 c 4.142,0 7.5,3.357 7.5,7.5 0,4.143 -3.358,7.5 -7.5,7.5 z"
               id="path4613" />
          </g>
          <g
             id="g4619">
            <path
               inkscape:connector-curvature="0"
               d="M 163.922,139.246 H 49.965 c -4.143,0 -7.5,-3.357 -7.5,-7.5 0,-4.143 3.357,-7.5 7.5,-7.5 h 113.957 c 4.142,0 7.5,3.357 7.5,7.5 0,4.143 -3.359,7.5 -7.5,7.5 z"
               id="path4617" />
          </g>
          <g
             id="g4623">
            <path
               inkscape:connector-curvature="0"
               d="M 87.682,240.096 H 49.965 c -4.143,0 -7.5,-3.357 -7.5,-7.5 0,-4.143 3.357,-7.5 7.5,-7.5 h 37.717 c 4.142,0 7.5,3.357 7.5,7.5 0,4.142 -3.359,7.5 -7.5,7.5 z"
               id="path4621" />
          </g>
          <g
             id="g4627">
            <path
               inkscape:connector-curvature="0"
               d="M 71.332,273.713 H 49.965 c -4.143,0 -7.5,-3.357 -7.5,-7.5 0,-4.143 3.357,-7.5 7.5,-7.5 h 21.367 c 4.142,0 7.5,3.357 7.5,7.5 0,4.142 -3.358,7.5 -7.5,7.5 z"
               id="path4625" />
          </g>
          <path
             inkscape:connector-curvature="0"
             d="M 333.404,34.782 316.296,22.025 c -4.308,-3.212 -9.605,-4.558 -14.923,-3.779 -5.316,0.775 -10.012,3.573 -13.223,7.88 -0.002,0.002 -0.004,0.005 -0.005,0.007 l -42.411,57.48 V 26.529 c 0,-4.143 -3.357,-7.5 -7.5,-7.5 h -31.08 V 7.5 c 0,-4.143 -3.358,-7.5 -7.5,-7.5 -4.143,0 -7.5,3.357 -7.5,7.5 V 19.029 H 169.73 V 7.5 c 0,-4.143 -3.357,-7.5 -7.5,-7.5 -4.142,0 -7.5,3.357 -7.5,7.5 V 19.029 H 132.308 V 7.5 c 0,-4.143 -3.357,-7.5 -7.5,-7.5 -4.143,0 -7.5,3.357 -7.5,7.5 V 19.029 H 94.887 V 7.5 c 0,-4.143 -3.358,-7.5 -7.5,-7.5 -4.143,0 -7.5,3.357 -7.5,7.5 V 19.029 H 57.465 V 7.5 c 0,-4.143 -3.358,-7.5 -7.5,-7.5 -4.143,0 -7.5,3.357 -7.5,7.5 V 19.029 H 11.383 c -4.142,0 -7.5,3.357 -7.5,7.5 v 311.34 c 0,4.143 3.358,7.5 7.5,7.5 h 226.852 c 4.143,0 7.5,-3.357 7.5,-7.5 V 188.138 L 337.502,62.934 c 10e-4,-0.002 0.003,-0.003 0.005,-0.005 6.627,-8.891 4.788,-21.517 -4.103,-28.147 z M 230.734,330.369 H 18.883 V 34.029 h 23.582 v 11.527 c 0,4.143 3.357,7.5 7.5,7.5 4.142,0 7.5,-3.357 7.5,-7.5 V 34.029 h 22.422 v 11.527 c 0,4.143 3.357,7.5 7.5,7.5 4.142,0 7.5,-3.357 7.5,-7.5 V 34.029 h 22.422 v 11.527 c 0,4.143 3.357,7.5 7.5,7.5 4.143,0 7.5,-3.357 7.5,-7.5 V 34.029 h 22.422 v 11.527 c 0,4.143 3.358,7.5 7.5,7.5 4.143,0 7.5,-3.357 7.5,-7.5 V 34.029 h 22.424 v 11.527 c 0,4.143 3.357,7.5 7.5,7.5 4.142,0 7.5,-3.357 7.5,-7.5 V 34.029 h 23.58 v 70.166 l -39.113,53.668 H 49.965 c -4.143,0 -7.5,3.357 -7.5,7.5 0,4.143 3.357,7.5 7.5,7.5 H 180.69 c 0,0 -42.642,58.513 -42.65,58.525 0,0 0.002,0 0.004,0 -0.484,0.673 -0.87,1.432 -1.115,2.272 l -17.15,58.669 H 49.965 c -4.143,0 -7.5,3.357 -7.5,7.5 0,4.143 3.357,7.5 7.5,7.5 0,0 75.515,-0.006 75.555,-0.006 0,-10e-4 -10e-4,-0.002 -0.002,-0.002 1.373,-0.022 2.744,-0.413 3.951,-1.193 l 56.059,-36.229 c 0.771,-0.498 1.412,-1.119 1.932,-1.813 0.018,-0.024 43.275,-59.367 43.275,-59.367 v 121.65 z m -82.438,-82.139 20.024,14.932 -30.069,19.432 z m 31.565,4.827 -25.305,-18.869 118.288,-162.305 25.305,18.869 z M 307.05,78.678 281.744,59.809 289.82,48.979 315.125,67.85 Z m 18.43,-24.716 c -0.002,0.002 -0.004,0.005 -0.005,0.007 l -1.384,1.855 -25.305,-18.871 1.383,-1.854 c 0.002,-0.002 0.004,-0.004 0.006,-0.006 0.816,-1.095 2.01,-1.807 3.361,-2.004 1.353,-0.196 2.697,0.146 3.791,0.961 l 17.109,12.757 c 2.261,1.685 2.729,4.895 1.044,7.155 z"
             id="path4629" />
        </g>
      </g>
    </g>
    <g
       transform="matrix(0.12129176,0,0,0.10052362,12.597069,261.33317)"
       id="g4637" />
    <g
       transform="matrix(0.12129176,0,0,0.10052362,12.597069,261.33317)"
       id="g4639" />
    <g
       transform="matrix(0.12129176,0,0,0.10052362,12.597069,261.33317)"
       id="g4641" />
    <g
       transform="matrix(0.12129176,0,0,0.10052362,12.597069,261.33317)"
       id="g4643" />
    <g
       transform="matrix(0.12129176,0,0,0.10052362,12.597069,261.33317)"
       id="g4645" />
    <g
       transform="matrix(0.12129176,0,0,0.10052362,12.597069,261.33317)"
       id="g4647" />
    <g
       transform="matrix(0.12129176,0,0,0.10052362,12.597069,261.33317)"
       id="g4649" />
    <g
       transform="matrix(0.12129176,0,0,0.10052362,12.597069,261.33317)"
       id="g4651" />
    <g
       transform="matrix(0.12129176,0,0,0.10052362,12.597069,261.33317)"
       id="g4653" />
    <g
       transform="matrix(0.12129176,0,0,0.10052362,12.597069,261.33317)"
       id="g4655" />
    <g
       transform="matrix(0.12129176,0,0,0.10052362,12.597069,261.33317)"
       id="g4657" />
    <g
       transform="matrix(0.12129176,0,0,0.10052362,12.597069,261.33317)"
       id="g4659" />
    <g
       transform="matrix(0.12129176,0,0,0.10052362,12.597069,261.33317)"
       id="g4661" />
    <g
       transform="matrix(0.12129176,0,0,0.10052362,12.597069,261.33317)"
       id="g4663" />
    <g
       transform="matrix(0.12129176,0,0,0.10052362,12.597069,261.33317)"
       id="g4665" />
  </g>
</svg>
