<?xml version="1.0" encoding="UTF-8" standalone="no"?>
<!-- Created with Inkscape (http://www.inkscape.org/) -->

<svg
   width="62mm"
   height="44mm"
   viewBox="0 0 62 44"
   version="1.1"
   id="svg8"
   inkscape:version="1.3 (0e150ed6c4, 2023-07-21)"
   sodipodi:docname="yoda-admin.svg"
   inkscape:export-filename="C:\workspace\yoda\docs\admin-icon-32.png"
   inkscape:export-xdpi="13.05"
   inkscape:export-ydpi="13.05"
   xmlns:inkscape="http://www.inkscape.org/namespaces/inkscape"
   xmlns:sodipodi="http://sodipodi.sourceforge.net/DTD/sodipodi-0.dtd"
   xmlns="http://www.w3.org/2000/svg"
   xmlns:svg="http://www.w3.org/2000/svg"
   xmlns:rdf="http://www.w3.org/1999/02/22-rdf-syntax-ns#"
   xmlns:cc="http://creativecommons.org/ns#"
   xmlns:dc="http://purl.org/dc/elements/1.1/">
  <defs
     id="defs2" />
  <sodipodi:namedview
     id="base"
     pagecolor="#ffffff"
     bordercolor="#666666"
     borderopacity="1.0"
     inkscape:pageopacity="0.0"
     inkscape:pageshadow="2"
     inkscape:zoom="0.9899495"
     inkscape:cx="-193.94929"
     inkscape:cy="110.6117"
     inkscape:document-units="mm"
     inkscape:current-layer="layer1"
     showgrid="false"
     inkscape:window-width="1920"
     inkscape:window-height="1001"
     inkscape:window-x="-9"
     inkscape:window-y="-9"
     inkscape:window-maximized="1"
     inkscape:snap-others="false"
     inkscape:snap-grids="false"
     inkscape:snap-nodes="false"
     inkscape:snap-global="false"
     inkscape:showpageshadow="2"
     inkscape:pagecheckerboard="0"
     inkscape:deskcolor="#d1d1d1" />
  <metadata
     id="metadata5">
    <rdf:RDF>
      <cc:Work
         rdf:about="">
        <dc:format>image/svg+xml</dc:format>
        <dc:type
           rdf:resource="http://purl.org/dc/dcmitype/StillImage" />
        <dc:title />
      </cc:Work>
    </rdf:RDF>
  </metadata>
  <g
     inkscape:groupmode="layer"
     id="layer2"
     inkscape:label="Baggrund">
    <rect
       style="fill:#ffffff;fill-opacity:1;stroke-width:0.26458332"
       id="rect905"
       width="62.140163"
       height="44.901276"
       x="-0.13363487"
       y="0.034164444"
       ry="6.0840784e-007" />
  </g>
  <g
     inkscape:label="Layer 1"
     inkscape:groupmode="layer"
     id="layer1"
     transform="translate(0,-253)">
    <rect
       style="fill:#008fb3;fill-opacity:1;stroke-width:0.26458332"
       id="rect815"
       width="62.140167"
       height="6.8153729"
       x="0"
       y="253.03416" />
    <rect
       style="fill:#ffffff;fill-opacity:1;stroke-width:0.26458332"
       id="rect907"
       width="9.2207985"
       height="8.2853556"
       x="1.3363476"
       y="270.27304"
       ry="6.0840671e-007" />
    <g
       transform="matrix(0.05458585,0,0,0.06761731,17.228828,261.59125)"
       id="g10458" />
    <g
       transform="matrix(0.05458585,0,0,0.06761731,17.228828,261.59125)"
       id="g10460" />
    <g
       transform="matrix(0.05458585,0,0,0.06761731,17.228828,261.59125)"
       id="g10462" />
    <g
       transform="matrix(0.05458585,0,0,0.06761731,17.228828,261.59125)"
       id="g10464" />
    <g
       transform="matrix(0.05458585,0,0,0.06761731,17.228828,261.59125)"
       id="g10466" />
    <g
       transform="matrix(0.05458585,0,0,0.06761731,17.228828,261.59125)"
       id="g10468" />
    <g
       transform="matrix(0.05458585,0,0,0.06761731,17.228828,261.59125)"
       id="g10470" />
    <g
       transform="matrix(0.05458585,0,0,0.06761731,17.228828,261.59125)"
       id="g10472" />
    <g
       transform="matrix(0.05458585,0,0,0.06761731,17.228828,261.59125)"
       id="g10474" />
    <g
       transform="matrix(0.05458585,0,0,0.06761731,17.228828,261.59125)"
       id="g10476" />
    <g
       transform="matrix(0.05458585,0,0,0.06761731,17.228828,261.59125)"
       id="g10478" />
    <g
       transform="matrix(0.05458585,0,0,0.06761731,17.228828,261.59125)"
       id="g10480" />
    <g
       transform="matrix(0.05458585,0,0,0.06761731,17.228828,261.59125)"
       id="g10482" />
    <g
       transform="matrix(0.05458585,0,0,0.06761731,17.228828,261.59125)"
       id="g10484" />
    <g
       transform="matrix(0.05458585,0,0,0.06761731,17.228828,261.59125)"
       id="g10486" />
    <path
       inkscape:connector-curvature="0"
       style="fill-rule:evenodd;stroke-width:2.19919276"
       d="m 21.903851,277.43697 c 0.603077,0.54226 2.968574,2.77355 2.968574,2.77355 l 1.298807,-1.20952 -2.040907,-1.89766 3.919474,-3.75364 c 0,0 -1.762598,-1.54315 -0.997268,-0.93839 0.74245,-2.48162 0.07013,-5.23429 -2.017767,-7.17364 -2.087274,-1.91856 -5.032709,-2.54413 -7.676694,-1.89767 l 4.476182,4.17066 -1.182837,4.08734 -4.383354,1.08437 -4.476181,-4.17074 c -0.718784,2.46073 -0.04383,5.19259 2.040994,7.11106 2.180019,2.04372 5.311023,2.62759 8.070977,1.81428 z m 14.935883,4.04557 -5.40385,4.7963 8.905904,8.29977 c 0.718785,0.68807 1.693087,1.02179 2.643985,1.02179 0.950898,0 1.901796,-0.3334 2.643897,-1.02179 1.461147,-1.35548 1.461147,-3.54516 0,-4.90057 z m 11.781828,-13.93012 -5.68216,-5.27597 -16.745029,15.55674 2.040995,1.89765 -9.995998,9.30068 -2.295988,1.10524 -3.223745,4.73379 0.811699,0.77162 5.102313,-3.00291 1.182837,-2.12702 10.01914,-9.30067 2.040907,1.89767 z"
       id="path1399" />
  </g>
</svg>
